<svg width="270" height="39" viewBox="0 0 270 39" fill="none" xmlns="http://www.w3.org/2000/svg">
<path d="M12.2991 38.9999C13.8193 38.9999 15.0517 37.7554 15.0517 36.2203C15.0517 34.6851 13.8193 33.4407 12.2991 33.4407C10.7788 33.4407 9.54645 34.6851 9.54645 36.2203C9.54645 37.7554 10.7788 38.9999 12.2991 38.9999Z" fill="#EA0535"/>
<path d="M24.2142 38.9999C25.7344 38.9999 26.9668 37.7554 26.9668 36.2203C26.9668 34.6851 25.7344 33.4407 24.2142 33.4407C22.6939 33.4407 21.4615 34.6851 21.4615 36.2203C21.4615 37.7554 22.6939 38.9999 24.2142 38.9999Z" fill="#EA0535"/>
<path d="M26.7781 14.864C26.4723 14.4697 26.1339 14.082 25.763 13.7206C23.8628 11.8543 21.5852 10.849 18.9757 10.7438C18.813 10.7372 18.6438 10.7307 18.4812 10.7307H12.2535V4.52747C12.2535 4.50119 12.247 4.48147 12.247 4.45519C12.2405 4.42891 12.2405 4.39605 12.2405 4.36976L12.234 4.23834H12.2535V0.131348H0.130188C0.162725 1.22874 0.572693 2.1947 1.3666 2.98981C2.18654 3.81778 3.18218 4.23834 4.32748 4.23834H8.1929V20.9686C8.1929 22.3814 8.44669 23.7088 8.94776 24.9179C9.44884 26.127 10.2167 27.2441 11.2254 28.2495C13.2427 30.2537 15.683 31.2656 18.4812 31.2656C18.8781 31.2656 19.2816 31.2459 19.698 31.1999C21.9887 30.9502 24.0255 29.958 25.7565 28.2495C26.238 27.7698 26.674 27.2572 27.0514 26.7249C28.2163 25.0559 28.8085 23.1239 28.8085 20.9752C28.8019 18.6621 28.1187 16.6119 26.7781 14.864ZM24.442 22.2303C24.2207 23.4196 23.6676 24.4776 22.7891 25.3976C21.9822 26.2518 21.0386 26.8038 19.9844 27.0666C19.5028 27.1849 19.0017 27.2572 18.4681 27.2572C16.7632 27.2572 15.325 26.6395 14.1472 25.3976C13.4119 24.6222 12.9043 23.7548 12.6245 22.7888C12.4618 22.2171 12.3772 21.606 12.3772 20.9686V19.0367V14.7851V14.7325H18.4616C19.7176 14.7325 20.8238 15.0677 21.7934 15.7313C22.1383 15.9679 22.4702 16.2439 22.7761 16.5659C23.9539 17.7881 24.5461 19.2535 24.5461 20.9686C24.5526 21.4089 24.5135 21.8294 24.442 22.2303Z" fill="url(#paint0_linear_5987_6382)"/>
<path d="M12.3836 0.0131424V0H0C0 1.19596 0.422983 2.22106 1.27546 3.08189C2.12793 3.93614 3.14309 4.36984 4.32744 4.36984H8.06271V4.4027C8.90868 2.58905 10.2883 1.21567 12.3836 0.0131424Z" fill="url(#paint1_linear_5987_6382)"/>
<path d="M18.4681 14.7326C19.724 14.7326 20.8303 15.0678 21.7999 15.7315C21.2663 13.655 20.3683 11.8873 18.9822 10.6125C18.8195 10.6059 18.6503 10.5994 18.4811 10.5994H12.3836V14.7326H18.4681Z" fill="url(#paint2_linear_5987_6382)"/>
<path d="M21.8064 15.7315C22.1513 15.9681 22.4832 16.2441 22.7891 16.566C23.9669 17.7883 24.5591 19.2537 24.5591 20.9687C24.5591 21.4024 24.52 21.823 24.4419 22.2304C26.9408 19.9896 27.2336 17.072 26.8822 14.7853C26.5764 14.3844 26.2315 13.9967 25.8541 13.6287C23.9214 11.7297 21.6307 10.7243 18.9822 10.6125C20.3683 11.8874 21.2728 13.6484 21.8064 15.7315Z" fill="url(#paint3_linear_5987_6382)"/>
<path d="M19.9844 27.0733C19.5028 27.1915 19.0017 27.2638 18.4681 27.2638C16.7632 27.2638 15.325 26.6461 14.1472 25.4042C13.4119 24.6288 12.9043 23.7614 12.6245 22.7954C12.8847 27.3032 15.9823 30.2143 19.7045 31.3248C22.0342 31.0685 24.0775 30.0763 25.8345 28.3415C26.3291 27.8487 26.7651 27.3361 27.1425 26.7973C24.917 27.7961 22.3921 28.0326 19.9844 27.0733Z" fill="url(#paint4_linear_5987_6382)"/>
<path d="M12.3837 6.97864V4.52759C12.3837 4.46845 12.3707 4.42245 12.3707 4.36331H12.3837V0.0131836C10.2883 1.21571 8.90871 2.58909 8.06274 4.40274V7.40577V11.6705C8.85014 9.83711 10.2362 8.37173 12.3837 6.97864Z" fill="url(#paint5_linear_5987_6382)"/>
<path d="M12.6309 22.7954C12.4682 22.2237 12.3836 21.6126 12.3836 20.9752V19.0433V14.7852C10.2232 17.7093 9.18197 21.3629 8.83057 24.9705C9.34465 26.1993 10.1125 27.323 11.1407 28.3415C13.1905 30.3786 15.6373 31.3971 18.4876 31.3971C18.9041 31.3971 19.314 31.3708 19.7175 31.3314C15.9887 30.2077 12.8912 27.3033 12.6309 22.7954Z" fill="url(#paint6_linear_5987_6382)"/>
<path d="M26.8822 14.7852C27.2336 17.0719 26.9408 19.9895 24.4419 22.2303C24.2207 23.4197 23.6676 24.4777 22.7891 25.3976C21.9821 26.2519 21.0385 26.8039 19.9843 27.0667C22.3921 28.0261 24.917 27.7961 27.149 26.7907C28.3334 25.0888 28.9321 23.1503 28.9321 20.9686C28.9321 18.6227 28.2488 16.5594 26.8822 14.7852Z" fill="url(#paint7_linear_5987_6382)"/>
<path d="M12.3837 14.7325V10.5992V8.825V7.39905V6.97192C10.2362 8.36502 8.85014 9.83696 8.06274 11.6638V20.9686C8.06274 22.4076 8.31653 23.735 8.83062 24.9638C9.18202 21.3563 10.2297 17.7092 12.3837 14.7785V14.7325Z" fill="url(#paint8_linear_5987_6382)"/>
<path d="M40.7365 10.3892C43.5543 10.3892 45.9815 11.3946 48.0118 13.4119C50.0422 15.4293 51.0573 17.8606 51.0573 20.7059C51.0573 23.5512 50.0422 25.976 48.0118 27.9737C45.9815 29.9713 43.5608 30.9701 40.7365 30.9701C37.9188 30.9701 35.498 29.9713 33.4742 27.9737C31.4504 25.976 30.4418 23.5512 30.4418 20.7059C30.4418 17.8606 31.4504 15.4293 33.4742 13.4119C35.498 11.3946 37.9188 10.3892 40.7365 10.3892ZM40.7365 14.4764C39.0576 14.4764 37.6325 15.0876 36.4677 16.3164C35.3028 17.5452 34.7237 19.004 34.7237 20.6994C34.7237 22.3947 35.3028 23.8535 36.4677 25.0561C37.6325 26.2651 39.0511 26.8697 40.7365 26.8697C42.4155 26.8697 43.8471 26.2651 45.0184 25.0561C46.1898 23.847 46.7754 22.3947 46.7754 20.6994C46.7754 19.004 46.1898 17.5386 45.0184 16.3164C43.8471 15.0941 42.422 14.4764 40.7365 14.4764Z" fill="#444B51"/>
<path d="M69.0374 20.7059C69.0374 19.0237 68.4517 17.5649 67.2804 16.3295C66.1091 15.0941 64.6904 14.4764 63.0245 14.4764C61.3456 14.4764 59.914 15.0876 58.7426 16.3164C57.5713 17.5452 56.9856 19.004 56.9856 20.6994V26.6397C56.9856 27.8225 56.5626 28.8411 55.7232 29.6887C54.8837 30.5364 53.8751 30.9635 52.7037 30.9635V20.7059C52.7037 17.8606 53.7124 15.4293 55.7362 13.4119C57.76 11.3946 60.1873 10.3892 63.0245 10.3892C65.8423 10.3892 68.263 11.3946 70.2868 13.4119C72.3041 15.4293 73.3193 17.8606 73.3193 20.7059V30.9701C72.148 30.9701 71.1393 30.543 70.2998 29.6953C69.4604 28.8476 69.0374 27.8291 69.0374 26.6463V20.7059Z" fill="#444B51"/>
<path d="M79.5859 30.9701C78.4146 30.9701 77.406 30.543 76.5665 29.6953C75.727 28.8476 75.304 27.8291 75.304 26.6463V10.3892C76.4754 10.3892 77.484 10.8163 78.3235 11.664C79.163 12.5117 79.5859 13.5302 79.5859 14.713V30.9701Z" fill="#444B51"/>
<path d="M85.9827 31.0752H81.7008V5.37524C82.8722 5.37524 83.8808 5.80237 84.7203 6.65005C85.5597 7.49774 85.9827 8.51627 85.9827 9.69909V18.9579H91.6377C93.3036 18.9579 94.7222 18.3402 95.8935 17.1048C97.0649 15.8694 97.6506 14.4106 97.6506 12.735V10.803H101.932V12.735C101.932 14.3843 101.562 15.9286 100.826 17.3808C100.084 18.833 99.0627 20.0421 97.7547 21.0212C99.0627 22.0003 100.084 23.2094 100.826 24.6617C101.568 26.1139 101.932 27.6516 101.932 29.2812V31.0817H97.6506V29.2812C97.6506 27.599 97.0649 26.1402 95.8935 24.9114C94.7222 23.676 93.3036 23.0583 91.6377 23.0583H85.9827V31.0752Z" fill="#444B51"/>
<path d="M159.393 25.0233C160.239 25.595 161.163 25.8775 162.159 25.8775C162.927 25.8775 163.727 25.7132 164.554 25.3847C165.465 25.0101 166.115 24.5436 166.506 23.985L169.551 26.1404C168.816 27.2115 167.723 28.0723 166.278 28.7228C164.911 29.3471 163.538 29.6625 162.159 29.6625C160.714 29.6625 159.335 29.3011 158.02 28.5783C156.673 27.8357 155.645 26.8435 154.929 25.6213C154.552 24.9773 154.265 24.307 154.083 23.617C153.901 22.9139 153.803 22.2042 153.803 21.4814C153.803 19.2209 154.597 17.2956 156.178 15.6922C157.76 14.0954 159.673 13.2937 161.912 13.2937C163.551 13.2937 165.055 13.7603 166.421 14.6934C168.107 15.8368 169.258 17.5453 169.89 19.8255L159.393 25.0233ZM165.172 18.5244C164.41 17.3876 163.324 16.8159 161.918 16.8159C160.506 16.8159 159.354 17.3547 158.463 18.4258C157.63 19.5429 157.343 20.8243 157.617 22.2699L165.172 18.5244Z" fill="#FF6A00"/>
<path d="M176.95 5.86816V20.7782C176.95 22.237 177.25 23.3804 177.848 24.2149C178.174 24.6749 178.584 25.0429 179.072 25.3189C179.475 25.5489 179.97 25.6672 180.568 25.6672C180.731 25.6672 180.894 25.654 181.056 25.6343C181.59 25.5554 182.416 25.2532 183.549 24.7143L185 28.3482C183.803 29.117 182.605 29.5507 181.401 29.6493C180.933 29.6624 180.497 29.6624 180.08 29.6624C179.059 29.6624 178.115 29.4259 177.25 28.9527C176.15 28.3745 175.258 27.5794 174.562 26.5871C173.456 25.0429 172.903 23.1044 172.903 20.7848V5.86816H176.95Z" fill="#FF6A00"/>
<path d="M191.338 5.86816V9.96201H187.284V5.86816H191.338ZM191.338 13.2805V29.6559H187.284V13.2805H191.338Z" fill="#FF6A00"/>
<path d="M198.62 13.2805L204.203 24.7078L209.787 13.2805H214.296L207.197 27.816C206.917 28.3943 206.494 28.8542 205.928 29.1828C205.394 29.4982 204.821 29.6625 204.203 29.6625C203.585 29.6625 203.006 29.5048 202.479 29.1828C201.913 28.8542 201.49 28.4008 201.21 27.816L194.11 13.2805H198.62Z" fill="#FF6A00"/>
<path d="M222.001 25.0233C222.847 25.595 223.771 25.8775 224.767 25.8775C225.535 25.8775 226.335 25.7132 227.162 25.3847C228.073 25.0101 228.723 24.5436 229.114 23.985L232.159 26.1404C231.424 27.2115 230.331 28.0723 228.886 28.7228C227.52 29.3471 226.146 29.6625 224.767 29.6625C223.322 29.6625 221.943 29.3011 220.628 28.5783C219.281 27.8357 218.253 26.8435 217.537 25.6213C217.16 24.9773 216.873 24.307 216.691 23.617C216.509 22.9139 216.411 22.2042 216.411 21.4814C216.411 19.2209 217.205 17.2956 218.787 15.6922C220.368 14.0954 222.281 13.2937 224.52 13.2937C226.159 13.2937 227.663 13.7603 229.029 14.6934C230.715 15.8368 231.866 17.5453 232.498 19.8255L222.001 25.0233ZM227.78 18.5244C227.018 17.3876 225.932 16.8159 224.526 16.8159C223.114 16.8159 221.962 17.3547 221.071 18.4258C220.238 19.5429 219.951 20.8243 220.225 22.2699L227.78 18.5244Z" fill="#FF6A00"/>
<path d="M244.276 17.3744C242.975 17.3744 241.862 17.8409 240.938 18.774C240.007 19.7203 239.539 20.844 239.539 22.1582V29.6559H235.504V22.1582C235.504 19.7006 236.363 17.6109 238.075 15.8761C239.793 14.1413 241.855 13.2805 244.276 13.2805C247.022 13.4908 249.105 14.6342 250.53 16.7172L247.439 18.7543C246.541 17.8344 245.487 17.3744 244.276 17.3744Z" fill="#FF6A00"/>
<path d="M261.078 33.0926C262.393 33.0926 263.532 32.6063 264.501 31.6272C265.464 30.6547 265.952 29.5047 265.952 28.1905V26.4951C264.911 28.1379 263.33 28.9593 261.215 28.9593C258.794 28.9593 256.725 28.0919 255.013 26.3637C253.295 24.6289 252.443 22.5459 252.443 20.1014V13.2673H256.497V20.1079C256.497 21.4222 256.959 22.5459 257.883 23.479C258.807 24.4121 259.92 24.8786 261.222 24.8786C262.536 24.8786 263.655 24.4121 264.573 23.479C265.497 22.5459 265.959 21.4222 265.959 20.1079V13.2673H270.013V28.1971C270.013 30.6284 269.135 32.7181 267.378 34.4594C265.621 36.1942 263.525 37.055 261.091 37.055C257.193 37.055 254.285 35.4188 252.365 32.1398L255.703 30.1356C256.849 32.1069 258.645 33.0926 261.078 33.0926Z" fill="#FF6A00"/>
<path d="M142.832 15.9287C141.498 14.5816 139.884 13.9048 137.997 13.9048H135.647V18.0578V18.8595V20.8834V22.9073V23.709V27.862H137.997C139.884 27.862 141.491 27.1852 142.832 25.8381C144.166 24.491 144.836 22.8547 144.836 20.9425C144.836 20.9228 144.836 20.9031 144.836 20.89C144.836 20.8702 144.836 20.8505 144.836 20.8374C144.836 18.912 144.166 17.2824 142.832 15.9287Z" fill="#E24329"/>
<path d="M151.825 18.8857C150.973 11.7625 145.025 5.94047 137.906 5.78276C131.886 5.65134 125.867 5.73676 119.841 5.73676C119.184 5.73676 118.318 5.5922 118.37 6.66987C118.422 7.70155 119.255 7.54384 119.919 7.54384C123.986 7.55041 128.053 7.55041 132.12 7.55041C133.227 7.55041 134.639 7.35985 134.626 8.95665C134.619 10.5732 133.845 10.3169 132.094 10.3169C128.977 10.3169 125.86 10.3235 122.743 10.3169C122.014 10.3169 121.234 10.3826 121.247 11.3091C121.26 12.2094 122.04 12.308 122.769 12.3145C123.244 12.3211 123.719 12.308 124.194 12.3211C125.275 12.354 126.745 12.0451 126.752 13.655C126.758 15.3504 125.236 15.0744 124.103 15.081C120.615 15.0941 117.134 15.0941 113.646 15.081C112.911 15.081 112.143 15.1336 112.149 16.0667C112.156 16.9801 112.956 17.0523 113.659 17.0918C113.978 17.1115 114.29 17.0983 114.609 17.0983C117.674 17.0983 120.739 17.0983 123.797 17.0983V17.1049C126.55 17.1049 129.303 17.1049 132.049 17.1049V13.2213C132.049 12.4131 132.335 11.7231 132.914 11.1383C133.481 10.5666 134.164 10.2775 134.964 10.2775H137.997C140.873 10.2775 143.333 11.3091 145.37 13.3659C147.406 15.4161 148.428 17.9 148.428 20.8242C148.428 20.8439 148.428 20.8636 148.428 20.8768C148.428 20.8965 148.428 20.9162 148.428 20.9293C148.428 23.8535 147.406 26.3374 145.37 28.3876C143.333 30.4444 140.873 31.4761 137.997 31.4761H134.964C134.164 31.4761 133.481 31.187 132.914 30.6153C132.335 30.0304 132.049 29.3405 132.049 28.5322V24.6486C129.296 24.6486 126.544 24.6486 123.797 24.6486V24.6552C120.732 24.6552 117.667 24.6552 114.609 24.6552C114.29 24.6552 113.971 24.6421 113.659 24.6618C112.956 24.7012 112.156 24.7735 112.149 25.6869C112.143 26.62 112.917 26.6726 113.646 26.6726C117.134 26.666 120.615 26.666 124.103 26.6726C125.236 26.6791 126.758 26.4031 126.752 28.0985C126.752 29.7085 125.275 29.3996 124.194 29.4325C123.719 29.4456 123.244 29.4325 122.769 29.439C122.047 29.4456 121.266 29.5442 121.247 30.4444C121.234 31.371 122.008 31.4367 122.743 31.4367C125.86 31.4301 128.977 31.4367 132.094 31.4367C133.851 31.4367 134.619 31.1804 134.626 32.7969C134.632 34.3937 133.227 34.2031 132.12 34.2031C128.053 34.2031 123.986 34.1966 119.919 34.2097C119.255 34.2097 118.416 34.052 118.37 35.0837C118.318 36.1679 119.184 36.0168 119.841 36.0168C125.86 36.0234 131.886 36.1022 137.906 35.9708C145.025 35.8131 150.973 29.991 151.825 22.8678C151.903 22.191 151.949 21.5273 151.955 20.8702C151.942 20.2262 151.903 19.5625 151.825 18.8857Z" fill="#E24329"/>
<path d="M121.377 21.8887C124.936 21.9347 128.496 21.9215 132.055 21.915V20.8833V19.8516C128.496 19.8451 124.936 19.8319 121.377 19.8779C120.498 19.8911 118.962 19.3128 118.988 20.8373C118.988 20.857 118.995 20.8702 118.995 20.8833C118.995 20.903 118.988 20.9162 118.988 20.9293C118.956 22.4538 120.498 21.8755 121.377 21.8887Z" fill="#E24329"/>
<path d="M106.175 31.075C107.617 31.075 108.785 29.8953 108.785 28.44C108.785 26.9847 107.617 25.8049 106.175 25.8049C104.734 25.8049 103.566 26.9847 103.566 28.44C103.566 29.8953 104.734 31.075 106.175 31.075Z" fill="#444B51"/>
<defs>
<linearGradient id="paint0_linear_5987_6382" x1="14.4657" y1="-1.88962" x2="14.4657" y2="43.2435" gradientUnits="userSpaceOnUse">
<stop offset="5.43435e-07" stop-color="#E9043F"/>
<stop offset="0.2145" stop-color="#FF3366"/>
<stop offset="0.5101" stop-color="#E24329"/>
<stop offset="0.7587" stop-color="#FF6A00"/>
</linearGradient>
<linearGradient id="paint1_linear_5987_6382" x1="-0.851368" y1="-0.684324" x2="11.6044" y2="3.27213" gradientUnits="userSpaceOnUse">
<stop offset="8.15152e-07" stop-color="#FF3366"/>
<stop offset="1" stop-color="#E80042"/>
</linearGradient>
<linearGradient id="paint2_linear_5987_6382" x1="25.3169" y1="7.7729" x2="13.2052" y2="15.5613" gradientUnits="userSpaceOnUse">
<stop offset="6.76629e-07" stop-color="#3366FF"/>
<stop offset="1" stop-color="#2A9DF4"/>
</linearGradient>
<linearGradient id="paint3_linear_5987_6382" x1="33.2282" y1="22.0994" x2="21.7613" y2="15.9549" gradientUnits="userSpaceOnUse">
<stop offset="6.76629e-07" stop-color="#3366FF"/>
<stop offset="1" stop-color="#2A9DF4"/>
</linearGradient>
<linearGradient id="paint4_linear_5987_6382" x1="6.10263" y1="23.9255" x2="26.935" y2="29.975" gradientUnits="userSpaceOnUse">
<stop offset="8.15152e-07" stop-color="#E24329"/>
<stop offset="1" stop-color="#FF6A00"/>
</linearGradient>
<linearGradient id="paint5_linear_5987_6382" x1="9.81097" y1="-2.97539" x2="10.4488" y2="10.4478" gradientUnits="userSpaceOnUse">
<stop offset="8.15152e-07" stop-color="#FF3366"/>
<stop offset="1" stop-color="#E80042"/>
</linearGradient>
<linearGradient id="paint6_linear_5987_6382" x1="7.23104" y1="14.3754" x2="16.3523" y2="29.2206" gradientUnits="userSpaceOnUse">
<stop offset="8.15152e-07" stop-color="#E24329"/>
<stop offset="1" stop-color="#FF6A00"/>
</linearGradient>
<linearGradient id="paint7_linear_5987_6382" x1="32.3637" y1="29.8609" x2="23.9948" y2="21.6514" gradientUnits="userSpaceOnUse">
<stop offset="6.76629e-07" stop-color="#3366FF"/>
<stop offset="1" stop-color="#2A9DF4"/>
</linearGradient>
<linearGradient id="paint8_linear_5987_6382" x1="9.17395" y1="4.31453" x2="11.0872" y2="22.1563" gradientUnits="userSpaceOnUse">
<stop stop-color="#E9043F"/>
<stop offset="0.4425" stop-color="#FF3366"/>
<stop offset="1" stop-color="#FF6A00"/>
</linearGradient>
</defs>
</svg>
